<svg width="56" height="56" viewBox="0 0 24 24" fill="none" xmlns="http://www.w3.org/2000/svg">
    <rect width="24" height="24" rx="4" fill="url(#paint0_linear)"/>
    <path d="M8.30357 9.71429C7.81742 9.71429 7.41965 10.1 7.41965 10.5714L7.41965 15.0157L4.6132 14.4457C4.5469 14.4329 4.47617 14.4243 4.40549 14.4243C4.13148 14.4243 3.88396 14.5315 3.70276 14.7072L3 15.3886L7.36662 19.6228C7.60528 19.8543 7.93675 20 8.30357 20H14.0491C14.7828 20 15.375 19.4257 15.375 18.7143V12.9286C15.375 12.3971 15.0435 11.9386 14.5662 11.7457L9.89024 9.80429C9.73996 9.74856 9.58085 9.71429 9.40849 9.71429H8.30357Z" fill="white"/>
    <path d="M15.6964 14.2857C16.1826 14.2857 16.5803 13.9 16.5803 13.4286L16.5803 8.98427L19.3868 9.55429C19.4531 9.56714 19.5238 9.5757 19.5945 9.5757C19.8685 9.5757 20.116 9.46854 20.2972 9.29284L21 8.61142L16.6334 4.37716C16.3947 4.14573 16.0633 4 15.6964 4L9.95089 4C9.21722 4 8.625 4.57427 8.625 5.28571L8.625 11.0714C8.625 11.6029 8.95647 12.0614 9.43379 12.2543L14.1098 14.1957C14.26 14.2514 14.4191 14.2857 14.5915 14.2857L15.6964 14.2857Z" fill="white" fill-opacity="0.6"/>
    <defs>
        <linearGradient id="paint0_linear" x1="30" y1="35.3571" x2="6" y2="-0.642858" gradientUnits="userSpaceOnUse">
            <stop stop-color="#FFF886"/>
            <stop offset="1" stop-color="#FF4E78"/>
        </linearGradient>
    </defs>
</svg>
